HIERARCHY
ROOT Pelvis
{
	OFFSET 0.000000 0.000000 0.000000
	CHANNELS 6 Xposition Yposition Zposition Xrotation Yrotation Zrotation
	JOINT LeftUpLeg_virtual
	{
		OFFSET 0.000000 0.000000 0.000000
		CHANNELS 3 Xrotation Yrotation Zrotation
		JOINT LeftUpLeg
		{
			OFFSET 18.735201 -5.666702 -4.541200
			CHANNELS 3 Xrotation Yrotation Zrotation
			JOINT LeftLeg
			{
				OFFSET -0.021200 -31.938179 0.493100
				CHANNELS 3 Xrotation Yrotation Zrotation
				JOINT LeftFoot
				{
					OFFSET 0.021200 -31.938179 -4.336299
					CHANNELS 3 Xrotation Yrotation Zrotation
					JOINT LeftToeBase
					{
						OFFSET 0.943001 -26.722000 15.023500
						CHANNELS 3 Xrotation Yrotation Zrotation
						End Site
						{
							OFFSET 0 0 0
						}
					}
				}
			}
		}
	}
	JOINT RightUpLeg_virtual
	{
		OFFSET 0.000000 0.000000 0.000000
		CHANNELS 3 Xrotation Yrotation Zrotation
		JOINT RightUpLeg
		{
			OFFSET -18.735201 -5.666702 -4.541200
			CHANNELS 3 Xrotation Yrotation Zrotation
			JOINT RightLeg
			{
				OFFSET 0.018946 -31.938133 0.493100
				CHANNELS 3 Xrotation Yrotation Zrotation
				JOINT RightFoot
				{
					OFFSET -0.018946 -31.938126 -4.336299
					CHANNELS 3 Xrotation Yrotation Zrotation
					JOINT RightToeBase
					{
						OFFSET -0.943001 -26.722004 15.023500
						CHANNELS 3 Xrotation Yrotation Zrotation
						End Site
						{
							OFFSET 0 0 0
						}
					}
				}
			}
		}
	}
	JOINT Hips_virtual
	{
		OFFSET 0.000000 0.000000 0.000000
		CHANNELS 3 Xrotation Yrotation Zrotation
		JOINT Hips
		{
			OFFSET -0.000000 -0.000000 -0.000000
			CHANNELS 3 Xrotation Yrotation Zrotation
			JOINT Spine
			{
				OFFSET 0.000000 10.199997 -0.299500
				CHANNELS 3 Xrotation Yrotation Zrotation
				JOINT Spine1
				{
					OFFSET 0.000000 11.900002 -1.516600
					CHANNELS 3 Xrotation Yrotation Zrotation
					JOINT Spine2
					{
						OFFSET 0.000000 13.600006 -2.842500
						CHANNELS 3 Xrotation Yrotation Zrotation
						JOINT Neck_virtual
						{
							OFFSET 0.000000 0.000000 0.000000
							CHANNELS 3 Xrotation Yrotation Zrotation
							JOINT Neck
							{
								OFFSET 0.000000 9.624100 -2.890100
								CHANNELS 3 Xrotation Yrotation Zrotation
								JOINT Head
								{
									OFFSET 0.000000 14.068802 -1.351900
									CHANNELS 3 Xrotation Yrotation Zrotation
									End Site
									{
										OFFSET 0 0 0
									}
								}
							}
						}
						JOINT LeftShoulder_virtual
						{
							OFFSET 0.000000 0.000000 0.000000
							CHANNELS 3 Xrotation Yrotation Zrotation
							JOINT LeftShoulder
							{
								OFFSET 15.263000 10.923401 -0.547700
								CHANNELS 3 Xrotation Yrotation Zrotation
								JOINT LeftArm
								{
									OFFSET 25.438599 -2.830597 -13.032500
									CHANNELS 3 Xrotation Yrotation Zrotation
									JOINT LeftForeArm
									{
										OFFSET 29.960503 0.000000 0.000000
										CHANNELS 3 Xrotation Yrotation Zrotation
										JOINT LeftHand
										{
											OFFSET 27.849251 0.000000 0.000000
											CHANNELS 3 Xrotation Yrotation Zrotation
											End Site
											{
												OFFSET 0 0 0
											}
										}
									}
								}
							}
						}
						JOINT RightShoulder_virtual
						{
							OFFSET 0.000000 0.000000 0.000000
							CHANNELS 3 Xrotation Yrotation Zrotation
							JOINT RightShoulder
							{
								OFFSET -15.263000 10.923401 -0.547700
								CHANNELS 3 Xrotation Yrotation Zrotation
								JOINT RightArm
								{
									OFFSET -25.438599 -2.830597 -13.032500
									CHANNELS 3 Xrotation Yrotation Zrotation
									JOINT RightForeArm
									{
										OFFSET -29.960503 0.000000 0.000000
										CHANNELS 3 Xrotation Yrotation Zrotation
										JOINT RightHand
										{
											OFFSET -27.849251 0.000000 0.000000
											CHANNELS 3 Xrotation Yrotation Zrotation
											End Site
											{
												OFFSET 0 0 0
											}
										}
									}
								}
							}
						}
					}
				}
			}
		}
	}
}
MOTION
Frames: 9
Frame Time: 0.03333333
0.503853 85.167542 1.636286 0.000000 0.000000 0.000000 -1.307010 -40.492934 2.222262 -44.867731 -2.013934 17.349842 43.852017 -2.940821 -2.682149 -7.502499 -1.702744 -11.297737 0.000000 0.000000 0.000000 3.209923 -30.686561 -2.067861 -28.841314 -11.929003 -20.938616 46.615235 2.175470 -1.592621 -7.931950 -0.350584 10.843608 0.000000 0.000000 0.000000 -0.680983 -18.075269 1.434005 -7.176416 -33.091543 6.643608 16.474964 2.538579 -5.329556 9.211156 2.012732 -4.029318 0.000000 0.000000 0.000000 10.312242 1.853060 -4.423639 2.831298 0.862127 -1.297368 0.000000 0.000000 0.000000 8.562384 2.825032 -2.478369 4.195351 -1.431853 -6.108576 -27.065924 -16.703967 -62.188408 -16.693966 -72.839419 -18.776868 0.000000 0.000000 0.000000 13.308314 4.326992 -3.074534 11.244733 19.650552 -7.641727 -28.379369 45.007152 44.846479 -172.257193 79.954194 173.353002 0.000000 0.000000 0.000000 
0.428660 85.276306 0.268833 0.000000 0.000000 0.000000 -0.991323 -41.456195 2.836083 -44.793467 -2.437428 17.791352 44.864859 -3.110063 -2.921961 -6.692762 -1.757443 -11.897612 0.000000 0.000000 0.000000 3.552557 -29.677732 -1.244768 -28.558242 -11.868506 -19.993647 46.809615 2.207550 -1.182731 -7.636241 -0.495248 11.421000 0.000000 0.000000 0.000000 -2.255472 -16.952668 0.444973 -4.164034 -31.335624 9.100174 18.132814 2.498284 -6.556694 10.369142 2.197185 -4.505240 0.000000 0.000000 0.000000 10.849985 1.572987 -4.920868 3.021943 0.842485 -1.214021 0.000000 0.000000 0.000000 8.808923 2.677007 -2.999396 4.764325 -1.440218 -6.685494 -28.664934 -14.519119 -61.418550 -14.454787 -71.923101 -16.094132 0.000000 0.000000 0.000000 13.977609 4.293071 -3.610112 12.564806 18.406627 -8.898916 -28.534456 45.682699 43.330788 -166.159446 78.538255 167.154031 0.000000 0.000000 0.000000 
-0.221941 85.685387 1.594046 0.000000 0.000000 0.000000 -1.221823 -41.078499 3.383359 -45.135102 -2.686549 18.354740 45.615603 -3.597947 -2.901354 -6.245881 -2.241131 -12.281785 0.000000 0.000000 0.000000 3.272913 -29.244770 -1.164025 -28.632677 -11.744738 -19.674249 47.554693 1.645345 -0.948513 -7.111550 -1.092703 11.331041 0.000000 0.000000 0.000000 -1.113450 -16.469323 1.152702 -7.145020 -32.425377 5.956568 18.915669 2.367416 -7.082940 10.047693 2.219724 -4.426789 0.000000 0.000000 0.000000 11.059401 1.658879 -5.039260 2.779659 0.832642 -1.266745 0.000000 0.000000 0.000000 9.376901 3.201184 -3.090546 4.626101 -2.510299 -7.113699 -28.944976 -13.956605 -61.075934 -12.286303 -71.421765 -13.874851 0.000000 0.000000 0.000000 14.125276 4.532629 -3.867938 12.921200 17.958507 -9.383668 -29.308048 47.995972 43.093525 -164.564105 78.833552 164.411601 0.000000 0.000000 0.000000 
0.048013 85.760811 -0.568375 0.000000 0.000000 0.000000 -1.289162 -39.946344 4.134650 -45.500856 -2.752357 19.227715 48.125001 -4.454870 -3.053723 -4.579930 -3.074397 -13.236750 0.000000 0.000000 0.000000 3.244213 -29.065867 -0.847615 -28.628472 -11.759959 -19.248808 49.023714 0.663216 -0.882852 -6.120072 -1.974299 10.700699 0.000000 0.000000 0.000000 -1.992689 -14.976187 0.487819 -5.875658 -31.213821 4.962548 19.265447 1.936816 -6.887305 11.386707 2.154613 -5.067750 0.000000 0.000000 0.000000 10.981954 1.541608 -5.248724 2.760907 0.898997 -1.302098 0.000000 0.000000 0.000000 9.801599 2.798158 -3.480335 4.073518 -3.373259 -6.931921 -28.917201 -17.268726 -60.194184 -11.536761 -74.110715 -12.697042 0.000000 0.000000 0.000000 14.362988 4.377599 -4.001316 11.859790 16.357900 -8.578346 -33.129856 44.933933 45.708340 -161.737691 75.898373 162.000448 0.000000 0.000000 0.000000 
-0.291711 84.683937 -2.128368 0.000000 0.000000 0.000000 -1.175042 -40.881131 4.234659 -45.219056 -3.059056 19.135907 49.890062 -4.850371 -3.351566 -3.427096 -3.351759 -14.010665 0.000000 0.000000 0.000000 3.249603 -28.813580 -0.855192 -28.340869 -11.754272 -19.044707 49.030322 -0.045131 -0.576258 -6.248324 -2.813975 10.594508 0.000000 0.000000 0.000000 -0.264605 -12.994112 0.827456 -5.842410 -30.414791 7.519579 21.018678 2.336269 -7.569358 11.655416 2.100442 -4.965387 0.000000 0.000000 0.000000 10.996340 1.542092 -5.317921 2.447049 0.902103 -1.185860 0.000000 0.000000 0.000000 9.823162 2.511616 -3.620275 3.758284 -3.773115 -6.718891 -31.769512 -18.497124 -58.897561 -15.864373 -76.024725 -15.962990 0.000000 0.000000 0.000000 14.264362 4.117840 -3.887588 11.807067 15.864014 -9.117737 -34.707883 43.314533 44.882655 -158.511984 74.746817 158.623985 0.000000 0.000000 0.000000 
-0.287210 84.361847 -2.298645 0.000000 0.000000 0.000000 -1.414856 -42.331955 5.110706 -45.786515 -3.971495 19.874268 53.505062 -5.610338 -3.416567 -1.052200 -4.193622 -14.856462 0.000000 0.000000 0.000000 3.020570 -28.172075 -1.285421 -28.369981 -11.466764 -19.334712 50.239122 -0.328426 0.073661 -5.563699 -3.361734 11.389000 0.000000 0.000000 0.000000 -1.885448 -18.115538 1.036482 -3.692303 -30.254156 6.889086 20.775188 2.383219 -7.620861 12.660710 2.360857 -5.184973 0.000000 0.000000 0.000000 10.272583 1.690448 -5.676751 2.604530 0.731987 -1.273907 0.000000 0.000000 0.000000 9.935243 2.590085 -3.968559 4.112573 -4.754311 -6.456546 -30.348648 -19.856933 -58.027641 -11.575896 -78.365889 -12.386243 0.000000 0.000000 0.000000 14.315976 4.035045 -4.165648 11.613254 15.478235 -10.696554 -39.862138 44.969672 44.228309 -154.430686 77.672768 154.197927 0.000000 0.000000 0.000000 
-1.000194 84.630638 -1.807154 0.000000 0.000000 0.000000 -1.360073 -44.388662 5.629004 -46.491855 -4.668925 20.332826 57.841764 -6.942493 -3.807395 1.190316 -5.268526 -16.633701 0.000000 0.000000 0.000000 2.031469 -27.168264 -2.222895 -29.370572 -10.718735 -20.009765 49.989041 -0.530131 0.739072 -6.029241 -3.946014 12.202217 0.000000 0.000000 0.000000 -0.764159 -16.239767 1.436338 -4.826455 -27.461863 4.336988 22.349383 3.864493 -7.546889 14.099027 2.232309 -5.068268 0.000000 0.000000 0.000000 9.721253 1.754966 -5.733143 2.273942 0.583735 -1.299722 0.000000 0.000000 0.000000 9.647241 2.567547 -3.999986 3.731059 -6.584110 -6.276045 -30.485935 -22.117659 -55.764270 -13.704364 -81.548408 -14.056713 0.000000 0.000000 0.000000 14.166911 4.021459 -4.225204 11.187575 14.440575 -11.345672 -39.940737 43.600704 43.433760 -145.226173 79.684047 145.336440 0.000000 0.000000 0.000000 
-1.529438 85.218109 -3.465588 0.000000 0.000000 0.000000 -1.078981 -45.889043 6.909339 -47.436132 -5.456902 21.512789 63.351897 -8.695281 -4.046853 3.756242 -6.752058 -18.587216 0.000000 0.000000 0.000000 1.829780 -26.519159 -1.886219 -29.717736 -10.610724 -19.620067 50.053716 -1.226982 1.659339 -6.326516 -5.061387 13.002386 0.000000 0.000000 0.000000 0.040109 -15.508972 1.456644 -3.641722 -22.203676 4.459585 24.049019 4.135849 -7.515732 14.441166 2.349283 -5.409319 0.000000 0.000000 0.000000 9.443525 1.817523 -6.089484 1.988255 0.408230 -1.277805 0.000000 0.000000 0.000000 9.966332 2.033837 -4.254296 3.130685 -7.417387 -6.467046 -32.604232 -21.983954 -56.206033 -28.755271 -85.211610 -28.139003 0.000000 0.000000 0.000000 14.330615 3.864780 -4.768443 10.355561 13.715266 -12.570138 -40.769348 42.790514 40.683738 -138.184590 80.202205 137.292881 0.000000 0.000000 0.000000 
-1.881526 85.385330 -6.161079 0.000000 0.000000 0.000000 -2.889283 -46.509207 6.502286 -49.589608 -6.002227 21.660642 66.856221 -9.674788 -4.428177 5.536827 -7.493892 -20.068199 0.000000 0.000000 0.000000 0.847329 -25.606420 -2.467183 -30.660296 -10.100619 -19.927186 50.337719 -1.641043 2.061059 -6.182096 -5.627247 13.271949 0.000000 0.000000 0.000000 1.794202 -13.999603 2.251351 -1.217248 -19.026032 4.937906 25.623943 4.017775 -7.463306 15.399889 2.274740 -5.142400 0.000000 0.000000 0.000000 8.436379 1.983169 -5.916689 1.568337 0.353864 -1.210787 0.000000 0.000000 0.000000 9.987167 1.836056 -4.110788 3.221220 -9.166527 -5.645804 -36.125697 -23.886403 -54.631538 -43.865377 -86.641469 -42.263250 0.000000 0.000000 0.000000 13.924086 3.715614 -4.769293 10.261778 13.688635 -13.431969 -41.765541 43.069537 39.253995 -128.080623 81.846041 126.661186 0.000000 0.000000 0.000000 
